<?xml version="1.0"?>
<!DOCTYPE svg PUBLIC '-//W3C//DTD SVG 1.1//EN' 'http://www.w3.org/Graphics/SVG/1.1/DTD/svg11.dtd'>
<svg height="100%" stroke-miterlimit="10"
  style="fill-rule:nonzero;clip-rule:evenodd;stroke-linecap:round;stroke-linejoin:round;"
  version="1.1" viewBox="0 0 512 512" width="100%" xml:space="preserve"
  xmlns="http://www.w3.org/2000/svg" xmlns:vectornator="http://vectornator.io"
  xmlns:xlink="http://www.w3.org/1999/xlink"><defs/><g id="Layer-2" xmlns:vectornator="http://vectornator.io"><path d="M298.312 174.562C279.93 174.562 265.344 190.517 265.344 209.906L265.344 215.594L246.656 215.594L246.656 210.406C246.656 191.106 232.113 175.188 213.812 175.188L73.375 175.188C54.9927 175.188 40.375 191.142 40.375 210.531L40.375 215L38.6562 215C34.4296 215 31 218.43 31 222.656C31 226.883 34.4296 230.312 38.6562 230.312L40.375 230.312L40.375 293.719C40.375 317.733 58.4212 337.437 81.0312 337.438L205.438 337.438C228.375 337.438 246.656 317.435 246.656 293.062L246.656 230.906L265.344 230.906L265.344 293.094C265.344 317.108 283.359 336.812 305.969 336.812L430.344 336.812C453.282 336.812 471.625 316.81 471.625 292.438L471.625 230.625L473.344 230.625C477.57 230.625 481 227.195 481 222.969C481 218.742 477.57 215.344 473.344 215.344L471.625 215.344L471.625 209.75C471.625 190.45 457.05 174.562 438.75 174.562L298.312 174.562ZM298.312 189.844L438.75 189.844C448.275 189.844 456.313 198.612 456.312 209.75L456.312 292.438C456.312 308.649 444.506 321.5 430.344 321.5L305.969 321.5C292.134 321.5 280.656 308.946 280.656 293.094L280.656 209.906C280.656 198.679 288.705 189.844 298.312 189.844ZM73.375 190.5L213.812 190.5C223.338 190.5 231.344 199.268 231.344 210.406L231.344 293.062C231.344 309.274 219.6 322.156 205.438 322.156L81.0312 322.156C67.1963 322.156 55.6875 309.571 55.6875 293.719L55.6875 210.531C55.6875 199.304 63.7678 190.5 73.375 190.5ZM332.031 248.062C329.068 247.725 326.058 249.145 324.5 251.906L295.25 303.781C293.173 307.462 294.444 312.111 298.125 314.188C301.806 316.264 306.486 314.962 308.562 311.281L337.844 259.438C339.921 255.756 338.619 251.108 334.938 249.031C334.017 248.512 333.019 248.175 332.031 248.062ZM103.781 248.719C100.818 248.381 97.8077 249.802 96.25 252.562L67 304.406C64.9231 308.087 66.2251 312.767 69.9062 314.844C73.5874 316.921 78.2356 315.587 80.3125 311.906L109.594 260.094C111.671 256.413 110.369 251.733 106.688 249.656C105.767 249.137 104.769 248.831 103.781 248.719ZM348.562 268.438C345.599 268.1 342.589 269.552 341.031 272.312L323.281 303.781C321.204 307.462 322.506 312.111 326.188 314.188C329.869 316.264 334.548 314.962 336.625 311.281L354.375 279.812C356.452 276.131 355.119 271.452 351.438 269.375C350.517 268.856 349.55 268.55 348.562 268.438ZM120.344 269.094C117.381 268.756 114.339 270.177 112.781 272.938L95.0312 304.406C92.9543 308.087 94.2564 312.767 97.9375 314.844C101.619 316.921 106.298 315.587 108.375 311.906L126.125 280.438C128.202 276.756 126.9 272.108 123.219 270.031C122.298 269.512 121.331 269.206 120.344 269.094Z" fill="#6054e6" fill-rule="evenodd" opacity="1" stroke="#6054e6" stroke-width="5" xmlns:vectornator="http://vectornator.io"/></g></svg>